# xmcd
#
# Track frame offsets:
#	150
#	15126
#	29789
#	39451
#	55900
#	69290
#	87842
#	99574
#	113998
#	132007
#	146145
#	160972
#
# Disc length: 2313 seconds
#
# Revision: 1
# Processed by: cddbd v1.5.2PL0 Copyright (c) Steve Scherf et al.
# Submitted via: audiograbber 1.83.01
#
DISCID=9b09070c
DTITLE=jim hendricks - a cowboy's prayer
DYEAR=2006
DGENRE=Country
TTITLE0=a cowboy's prayer
TTITLE1=deep in my heart
TTITLE2=long lonesome highway
TTITLE3=home on the range
TTITLE4=ride 'em cowboy
TTITLE5=jesus loves me (this i know)
TTITLE6=cattle call
TTITLE7=cool water
TTITLE8=precious memories
TTITLE9=what a friend (we have in jesus)
TTITLE10=softly and tenderly
TTITLE11=the end of the trail
EXTD=
EXTT0=
EXTT1=
EXTT2=
EXTT3=
EXTT4=
EXTT5=
EXTT6=
EXTT7=
EXTT8=
EXTT9=
EXTT10=
EXTT11=
PLAYORDER=
